<svg xmlns="http://www.w3.org/2000/svg" aria-hidden="true" style="position:absolute;width:0;height:0;overflow:hidden">
  <defs>
    <symbol id="icon-antenna" viewBox="0 0 30 32">
      <path fill="#2e2f42" d="m29.775 22.1-8.444-8.506.937-4.615c.242.094.499.143.759.145h.032a2.16 2.16 0 1 0-2.029-1.42l-.005-.015-4.961.605L7.972.161a.53.53 0 0 0-.376-.16.54.54 0 0 0-.374.155L5.709 1.66a.53.53 0 0 0 0 .754l.814.825C5.38 5.301 4.707 7.761 4.707 10.378c0 4.106 1.656 7.826 4.337 10.527l-.001-.001a.506.506 0 0 0 .146.098 2.986 2.986 0 0 0-.052.546v6.189H2.736a2.67 2.67 0 0 0-2.668 2.667v1.067c.001.295.24.534.534.534h24.536a.534.534 0 0 0 .534-.534v-1.067a2.67 2.67 0 0 0-2.667-2.667h-6.401v-2.742a14.79 14.79 0 0 0 10.167-1.502l-.077.039.819.823a.534.534 0 0 0 .377.16.532.532 0 0 0 .373-.155l1.513-1.505a.535.535 0 0 0 0-.754zM22.281 6.234a1.067 1.067 0 1 1 .752 1.824h-.003a1.066 1.066 0 0 1-.746-1.824h-.002zm-1.256 3.505-.599 2.945-1.176-1.182 1.774-1.764zm-.606-.902-1.92 1.909-1.485-1.494 3.405-.415zm2.586 19.966a1.6 1.6 0 0 1 1.6 1.6v.534H1.136v-.534a1.6 1.6 0 0 1 1.6-1.6h20.269zm-7.467-2.134v1.067h-5.334v-1.067h5.334zm-5.335-1.066v-4.054c0-1.294 1.197-2.347 2.667-2.347s2.667 1.053 2.667 2.347v4.054h-5.334zm6.401-1.696v-2.358c0-1.882-1.675-3.413-3.733-3.413h-.059c-1.353 0-2.54.707-3.214 1.771l-.009.016a13.819 13.819 0 0 1-3.812-9.55c0-2.314.567-4.496 1.569-6.415l-.036.077 18.604 18.711c-1.823.947-3.98 1.502-6.267 1.502a13.9 13.9 0 0 1-3.136-.357l.093.018zm11.29-.684L6.835 2.04l.755-.752 7.936 7.981c.004 0 .005.007.009.009L28.651 22.47l-.757.752z" style="fill:var(--color1, #2e2f42)"/>
      <path fill="#4d5ae5" d="M12.875 20.269h-.007a1.6 1.6 0 0 0-.002 3.2h.007a1.6 1.6 0 0 0 .002-3.2zm.374 1.978a.534.534 0 0 1-.91-.379v-.002a.534.534 0 0 1 .53-.531.535.535 0 0 1 .374.912h.005z" style="fill:var(--color2, #4d5ae5)"/>
    </symbol>
    <symbol id="icon-diagram" viewBox="0 0 32 32">
      <path fill="#4d5ae5" d="M14.927 14.967h1.066v4.798h-1.066v-4.798zm4.265 2.132h1.066v2.665h-1.066v-2.665zm-8.53 1.599h1.066v1.066h-1.066v-1.066zm-3.199-.533H8.53v1.599H7.463v-1.599z" style="fill:var(--color2, #4d5ae5)"/>
      <path fill="#2e2f42" d="M1.599 28.294h25.589a1.6 1.6 0 0 0 1.599-1.599v-2.133a1.6 1.6 0 0 0-1.599-1.599h-.534V9.668L29.682 6.8a1.608 1.608 0 1 0-.742-.753l-.004-.01L26.654 8.2V6.97a1.6 1.6 0 0 0-1.599-1.599H3.73A1.6 1.6 0 0 0 2.131 6.97v15.994h-.533a1.6 1.6 0 0 0-1.599 1.599v2.134a1.6 1.6 0 0 0 1.599 1.599zM30.387 4.837a.533.533 0 1 1 0 1.066.533.533 0 1 1 0-1.066zM3.199 6.97c0-.295.239-.534.533-.534h21.324c.295 0 .533.239.533.534v2.239l-1.066 1.013V8.036a.533.533 0 0 0-.533-.533H4.798a.533.533 0 0 0-.533.533v13.327c0 .295.239.534.533.534H23.99a.533.533 0 0 0 .533-.534v-9.675l1.066-1.01v12.284H3.199V6.969zm4.798 6.93h-.005a1.6 1.6 0 1 0 1.112 2.748l1.853.93a.533.533 0 0 0 .637-.123l3.939-4.432 3.872 2.902a.532.532 0 0 0 .686-.04l3.365-3.188v8.132H5.331V8.568h18.126v2.66L19.685 14.8l-3.905-2.928a.531.531 0 0 0-.717.072v.001l-3.993 4.493-1.493-.747c.011-.064.018-.129.021-.194a1.6 1.6 0 0 0-1.599-1.599zm.533 1.599a.533.533 0 1 1-1.066 0 .533.533 0 1 1 1.066 0zm3.198 8.53h5.331v.533a.533.533 0 0 1-.533.533h-4.265a.533.533 0 0 1-.533-.533v-.533zm-10.662.534c0-.295.239-.533.533-.533h9.063v.533a1.6 1.6 0 0 0 1.599 1.599h4.265a1.6 1.6 0 0 0 1.599-1.599v-.534h9.062c.295 0 .534.239.534.533v2.133a.534.534 0 0 1-.534.533H1.598a.533.533 0 0 1-.533-.533v-2.133z" style="fill:var(--color1, #2e2f42)"/>
    </symbol>
    <symbol id="icon-clock" viewBox="0 0 32 32">
      <path fill="#2e2f42" d="M31.3 15.303C31.298 6.85 24.444-.001 15.99 0S.686 6.856.687 15.31c.002 6.789 4.423 12.544 10.542 14.547l.108.031a.677.677 0 0 0 .53-.064.642.642 0 0 0 .284-.357l3.865-12.251a1.913 1.913 0 1 0-.852-3.63l.011-.005-5.107-5.107a.637.637 0 1 0-.902.902l5.104 5.11a1.847 1.847 0 0 0-.191.826c0 .602.283 1.137.723 1.48l.004.003-3.683 11.674C3.844 25.788.117 17.714 2.799 10.435 5.48 3.157 13.555-.571 20.833 2.111s11.005 10.756 8.324 18.034c-1.345 3.582-4.004 6.407-7.375 7.939l-.088.036-.398-1.875a.638.638 0 0 0-1.049-.343l.001-.001-3.837 3.426a.639.639 0 0 0 .227 1.084l.005.001 4.899 1.564a.638.638 0 0 0 .819-.744l.001.004-.391-1.839c5.528-2.375 9.33-7.773 9.33-14.058v-.034.002zm-15.306-.638a.638.638 0 0 1 0 1.276.638.638 0 0 1 0-1.276zm2.1 14.866 2.184-1.948.603 2.84-2.787-.892z" style="fill:var(--color1, #2e2f42)"/>
      <path fill="#4d5ae5" d="M15.356 3.185V4.46a.638.638 0 1 0 1.276 0V3.185a.639.639 0 0 0-1.276-.001v.001zm-11.48 11.48a.638.638 0 1 0 0 1.276h1.275a.638.638 0 1 0 0-1.276H3.876zm24.235 1.276a.638.638 0 1 0 0-1.276h-1.275a.639.639 0 0 0-.001 1.276h1.276z" style="fill:var(--color2, #4d5ae5)"/>
    </symbol>
    <symbol id="icon-astronaut" viewBox="0 0 32 32">
      <path fill="#4d5ae5" d="M31.977 4.524a.535.535 0 0 0-.427-.362h-.003l-1.911-.278-.855-1.731c-.179-.365-.777-.365-.956 0l-.855 1.731-1.91.278a.534.534 0 0 0-.296.909l1.383 1.348-.327 1.903c-.034.2.048.402.212.522a.53.53 0 0 0 .562.04l1.709-.899 1.709.899a.534.534 0 0 0 .773-.565v.003l-.326-1.903 1.383-1.348a.535.535 0 0 0 .134-.551l.001.004zm-2.463 1.328a.534.534 0 0 0-.153.472l.191 1.114-1.001-.526a.525.525 0 0 0-.5.001l.003-.001-1.001.526.191-1.114a.53.53 0 0 0-.153-.472l-.81-.79 1.119-.163a.535.535 0 0 0 .402-.292l.5-1.013.501 1.013a.532.532 0 0 0 .402.292l1.119.163-.809.79zm-3.378 14.672h-1.067v1.067h1.067v-1.067zm0 2.134h-1.067v1.067h1.067v-1.068z" style="fill:var(--color2, #4d5ae5)"/>
      <path fill="#4d5ae5" d="M27.203 21.591h-1.067v1.067h1.067v-1.067zm-2.133 0h-1.067v1.067h1.067v-1.067zm-2.668 4.801h-1.067v1.067h1.067v-1.067zm0 2.134h-1.067v1.067h1.067v-1.067zm1.068-1.068h-1.067v1.067h1.067v-1.068z" style="fill:var(--color2, #4d5ae5)"/>
      <path fill="#4d5ae5" d="M21.336 27.458h-1.067v1.067h1.067v-1.068zm-5.334-3.2h-1.067v1.067h1.067v-1.068zm0 2.134h-1.067v1.067h1.067v-1.067zm1.066-1.067h-1.067v1.067h1.067v-1.067zm-2.133 0h-1.067v1.067h1.067v-1.067zM5.867 6.123H4.8V7.19h1.067V6.123zm0 2.133H4.8v1.067h1.067V8.256zm1.067-1.067H5.867v1.067h1.067V7.189zm-2.133 0H3.734v1.067h1.067V7.189z" style="fill:var(--color2, #4d5ae5)"/>
      <path fill="#2e2f42" d="M24.718 14.161a1.774 1.774 0 0 0-1.179-.704l-.009-.001a1.764 1.764 0 0 0-1.344.356l.004-.003-1.252.96-1.898 1.418-1.358-.541c2.421-1.086 4.114-3.508 4.114-6.321 0-3.823-3.123-6.934-6.962-6.934s-6.962 3.11-6.962 6.934c0 1.386.414 2.674 1.12 3.759l-2.769-.024c-.008 0-.015.005-.024.005a.52.52 0 0 0-.155.03c-.013.005-.026.008-.038.014-.006.002-.013.003-.019.007l-3.234 1.597-1.894.911a.429.429 0 0 0-.064.036l.001-.001a1.78 1.78 0 0 0-.593 2.304l-.005-.01c.22.429.595.745 1.056.89a1.772 1.772 0 0 0 1.388-.133l-.009.005 1.388-.738 2.264-1.17 1.357-.008-5.443 5.416-.002.002L.858 23.55c-.303.299-.49.714-.49 1.173v.005a1.664 1.664 0 0 0 1.669 1.664 1.67 1.67 0 0 0 1.18-.485l1.315-1.309 1.741-1.3.901.897-3.102 3.089c-.303.299-.49.714-.49 1.173v.005c0 .445.174.864.49 1.179.325.323.753.485 1.18.485s.855-.162 1.18-.485l3.482-3.467.001-.002 1.01-1-.004-.003c.007-.006.015-.009.022-.015l5.167-5.659 3.471.494a.522.522 0 0 0 .266-.035l-.004.001c.017-.006.033-.015.05-.023.019-.009.039-.015.057-.027l3.214-2.134c.012-.008.018-.02.029-.029.012-.01.029-.014.04-.025l1.272-1.192a1.777 1.777 0 0 0 .209-2.366l.003.005zM2.13 17.772a.714.714 0 0 1-.558.052.717.717 0 0 1-.215-1.258l.002-.001 1.314-.632.316.925.133.388-.993.528zm3.498-1.828-1.549.8-.255-.747-.184-.537 2.027-1-.04 1.484zm15.101-6.621c0 .919-.219 1.785-.599 2.56l-4.182-1.899a1.86 1.86 0 0 0-.782-1.384l-.006-.004 1.464-4.861c2.378.756 4.105 2.974 4.105 5.588zm-11.79 0c0-3.235 2.645-5.868 5.895-5.868.253 0 .5.022.745.053l-1.432 4.754c-.019 0-.037-.005-.057-.005h-.001a1.872 1.872 0 0 0-1.872 1.866 1.872 1.872 0 0 0 1.872 1.867h.001c.695 0 1.295-.383 1.618-.945l3.863 1.755a5.891 5.891 0 0 1-4.737 2.39c-3.25 0-5.895-2.633-5.895-5.868zm5.957.8c0 .441-.362.8-.806.8h-.002a.804.804 0 0 1-.804-.8c0-.441.362-.8.806-.8s.806.359.806.8zM2.465 25.149a.609.609 0 0 1-.855 0 .591.591 0 0 1 0-.844l.962-.959.851.848-.959.955zm3.214 3.734a.606.606 0 0 1-.855.001.591.591 0 0 1 0-.844l.963-.959.852.848-.96.955zm3.483-3.469-.002.001-1.765 1.76-.852-.848 1.764-1.756.002-.001c.04-.04.065-.088.09-.135.007-.014.02-.026.026-.04.017-.041.019-.085.025-.129.004-.024.014-.047.014-.073 0-.035-.012-.07-.02-.105-.007-.032-.007-.065-.018-.096a.511.511 0 0 0-.091-.137c-.01-.012-.014-.027-.025-.038h-.001l-.001-.002-1.607-1.6c-.017-.017-.039-.024-.058-.038a.491.491 0 0 0-.084-.056l-.003-.001a.477.477 0 0 0-.09-.032l-.003-.001a.502.502 0 0 0-.101-.02H6.34a.49.49 0 0 0-.077.006h.003a.59.59 0 0 0-.108.021l.004-.001a.502.502 0 0 0-.096.046l.002-.001c-.02.011-.043.015-.061.029l-1.774 1.324-.901-.897 2.399-2.387 4.36 4.289-.927.919zm6.819-7.018c-.015-.002-.03.004-.045.003l-.026-.001a.562.562 0 0 0-.092.008h.003a.5.5 0 0 0-.187.069l.002-.001a.554.554 0 0 0-.083.061c-.013.011-.028.017-.04.029l-4.699 5.147-4.328-4.257 2.833-2.818a.535.535 0 0 0-.378-.911H8.94l-2.219.013.027-1.608 3.104.027a6.929 6.929 0 0 0 4.979 2.101h.003c.438 0 .864-.045 1.28-.122.04.032.079.064.13.085l2.409.96.153.758.179.885-3.003-.427zm4.042.179-.314-1.558 1.447-1.08.947 1.257-2.08 1.382zm3.754-2.832-.838.785-.931-1.237.832-.637a.73.73 0 0 1 .543-.143.716.716 0 0 1 .395 1.232z" style="fill:var(--color1, #2e2f42)"/>
      <path fill="#2e2f42" d="m13.603 18.546-2.143-2.134a.53.53 0 0 0-.752 0l-2.143 2.134a.533.533 0 0 0 0 .756l2.143 2.133a.53.53 0 0 0 .752 0l2.143-2.133a.532.532 0 0 0 0-.756zm-2.519 1.759-1.387-1.381 1.387-1.381 1.388 1.381-1.388 1.381zm6.082-15.233-.258 1.036c.071.018 1.738.452 1.738 2.149h1.067c0-2.017-1.666-2.966-2.547-3.185zm2.547 4.251h-1.067v1.067h1.067V9.323z" style="fill:var(--color1, #2e2f42)"/>
    </symbol>
  </defs>
</svg>
